<svg xmlns="http://www.w3.org/2000/svg" viewBox="0 0 640 240" font-family="Segoe UI, sans-serif">
  <defs><filter id="ds"><feDropShadow dx="1" dy="1" stdDeviation="2" flood-opacity="0.1"/></filter></defs>
  <rect width="640" height="240" rx="12" fill="#f8f9fa" stroke="#dee2e6"/>
  <rect x="0" y="0" width="640" height="40" rx="12" fill="#e67e22"/>
  <rect x="0" y="20" width="640" height="20" fill="#e67e22"/>
  <text x="320" y="27" text-anchor="middle" font-size="14" font-weight="700" fill="#fff">NODE SCALING TIMELINE</text>
  <!-- Timeline -->
  <line x1="80" y1="70" x2="80" y2="200" stroke="#e67e22" stroke-width="3" stroke-linecap="round"/>
  <circle cx="80" cy="75" r="6" fill="#e67e22"/>
  <text x="100" y="78" font-size="11" font-weight="700" fill="#2c3e50">T+0</text>
  <text x="170" y="78" font-size="10" fill="#555">Scale command issued</text>
  <circle cx="80" cy="105" r="6" fill="#e67e22"/>
  <text x="100" y="108" font-size="11" font-weight="700" fill="#2c3e50">T+1 min</text>
  <text x="170" y="108" font-size="10" fill="#555">Azure starts provisioning VM</text>
  <circle cx="80" cy="135" r="6" fill="#e67e22"/>
  <text x="100" y="138" font-size="11" font-weight="700" fill="#2c3e50">T+3 min</text>
  <text x="170" y="138" font-size="10" fill="#555">VM is running, joining cluster</text>
  <circle cx="80" cy="165" r="6" fill="#f39c12"/>
  <text x="100" y="168" font-size="11" font-weight="700" fill="#2c3e50">T+4 min</text>
  <text x="170" y="168" font-size="10" fill="#555">Node appears as "NotReady"</text>
  <circle cx="80" cy="195" r="8" fill="#27ae60"/>
  <text x="100" y="198" font-size="11" font-weight="700" fill="#2c3e50">T+5 min</text>
  <text x="170" y="198" font-size="10" fill="#27ae60" font-weight="600">Node is "Ready" — pods can be scheduled</text>
  <!-- Note -->
  <rect x="400" y="170" width="220" height="35" rx="6" fill="#fef9e7" stroke="#f39c12"/>
  <text x="510" y="192" text-anchor="middle" font-size="10" fill="#e67e22" font-weight="600">Total: ~5 min to add a node</text>
</svg>